# xmcd
#
# Track frame offsets:
#	150
#	13472
#	24697
#	34847
#	44717
#	54760
#	66995
#	77330
#	91777
#	101150
#	111357
#	124302
#	135022
#	146390
#	159840
#	173650
#	186120
#	194455
#	206427
#	217667
#	227980
#	241900
#	250152
#	261885
#
# Disc length: 3612 seconds
#
# Revision: 2
# Processed by: cddbd v1.5.1PL0 Copyright (c) Steve Scherf et al.
# Submitted via: dBpowerAMP V4.0
#
DISCID=460e1a18
DTITLE=Various Artist - OriginalOldiesCountry,CD6
DYEAR=1900
DGENRE=Country
TTITLE0=WolvertonMountain(ClaudeKing) - Claude King
TTITLE1=It'sSuchAPrettyWorldToday(WynnStewart) - WynnStewart
TTITLE2=BridgeWashedOut,The(WarnerMac) - WarnerMac
TTITLE3=PleaseHelpMeI'mFalling(HankLocklin) - HankLocklin
TTITLE4=Oh-Oh,I'mFallingInLoveAgain(JimmieRodgers) - JimmieRodgers
TTITLE5=SatinSheets(JeannePruett) - JeannePruett
TTITLE6=Abilene(GeorgeHamilton) - GeorgeHamilton
TTITLE7=CoalMiner'sDaughter[live](LorettaLynn) - LorettaLynn
TTITLE8=IDon'tBelieveYou'veMetMyBaby(TheLouvinBrothers) - TheLouvinBrothers
TTITLE9=HelloWalls(FaronYoung) - FaronYoung
TTITLE10=Misty(RayStevens) - RayStevens
TTITLE11=WingsOfADove(FerlinHusky) - FerlinHusky
TTITLE12=(Walkin'AfterMidnight(PatsyCline) - PatsyCline
TTITLE13=BigBadJohn(JimmyDean) - JimmyDean
TTITLE14=Don'tTouchMe(JeanneSeely) - JeanneSeely
TTITLE15=Fool,The(SanfordClark) - SanfordClark
TTITLE16=Bonanza(TheWesternThemesOrchestra) - TheWesternThemesOrchestra
TTITLE17=WildSideOfLife,The(HankThompson) - Hankhompson
TTITLE18=ItWasn'tGodWhoMadeHonkyTonkAngels(KittyWells) - KittyWells
TTITLE19=SixDaysOnTheRoad(DaveDudley) - DaveDudley
TTITLE20=TeddyBearSong(BarbaraFairchild) - Barbara Fairchild
TTITLE21=DangMe(RogerMiller) - RogerMiller
TTITLE22=HappiestGirlInTheWholeUSA,The(DonnaFargo) - DonnaFargo
TTITLE23=Tippy-Toeing(TheHardenTrio) - Harden Trio
EXTD=more info\nMillenniumMusicProjectFormat, syntax as follows:\nTitle{Subtitle}[info](Lyricist;Composer;Date,Artist,Location)[info]\ncorrections to: windking3@yahoo.com
EXTT0=
EXTT1=
EXTT2=
EXTT3=
EXTT4=
EXTT5=
EXTT6=
EXTT7=
EXTT8=
EXTT9=
EXTT10=
EXTT11=
EXTT12=
EXTT13=
EXTT14=
EXTT15=
EXTT16=
EXTT17=
EXTT18=
EXTT19=
EXTT20=
EXTT21=
EXTT22=
EXTT23=
PLAYORDER=
